<?xml version="1.0" encoding="utf-8"?>
<svg viewBox="0 0 334 304" xmlns="http://www.w3.org/2000/svg">
  <g transform="matrix(0, -1, 1, 0, 99.628555, 138.891174)">
    <path d="M 160.596 204.955 C 137.319 204.955 123.158 199.586 114.907 191.97 C 106.623 184.323 104.179 174.303 104.179 165.234 C 104.179 164.343 104.586 163.365 105.21 162.704 C 105.832 162.046 106.82 161.58 107.859 161.554 L 121.64 161.554 C 122.52 161.569 123.425 161.883 124.023 162.406 C 124.624 162.932 125.014 163.766 125.053 164.655 C 126.099 171.623 128.064 176.622 133.243 180.021 C 138.466 183.448 146.865 185.14 160.861 185.14 C 171.953 185.14 179.779 183.901 184.875 181.19 C 189.924 178.504 192.163 174.519 192.163 168.679 C 192.163 166.982 192.011 165.501 191.264 164.089 C 190.509 162.662 189.206 161.389 186.771 160.147 C 181.823 157.624 172.573 155.524 155.246 153.806 C 140.779 152.345 128.942 150.005 120.754 145.125 C 112.539 140.229 107.889 132.636 107.889 120.977 C 107.889 110.128 112.513 101.355 120.887 95.426 C 129.24 89.512 141.452 86.291 156.621 86.291 C 173.638 86.291 186.446 89.243 195.202 95.392 C 203.978 101.555 208.772 111.08 209.858 123.892 C 209.845 124.766 209.538 125.7 208.979 126.555 L 208.952 126.596 L 208.917 126.631 C 208.349 127.192 207.377 127.795 206.443 127.837 L 192.662 127.837 C 191.907 127.82 191.08 127.507 190.492 127.03 C 189.905 126.553 189.428 125.811 189.259 125.059 C 187.698 117.845 184.951 113.199 179.889 110.246 C 174.799 107.277 167.447 106.107 156.621 106.107 C 144.505 106.107 137.843 108.176 134.136 111.038 C 130.49 113.852 129.825 117.315 129.825 120.447 C 129.825 122.335 130.019 123.784 130.804 125.069 C 131.595 126.365 132.926 127.416 135.349 128.433 C 140.268 130.5 149.278 132.144 165.696 134.262 C 182.014 136.386 194.113 138.992 202.102 143.939 C 210.126 148.908 214.069 156.377 214.098 167.89 C 213.937 179.664 209.009 189.033 199.903 195.326 C 190.821 201.604 177.485 204.955 160.596 204.955 Z M 199.335 194.504 C 208.25 188.342 212.994 179.426 213.098 167.881 C 213.127 156.605 209.385 149.626 201.575 144.789 C 193.729 139.931 181.845 137.37 165.567 135.254 C 149.124 133.132 139.98 131.463 134.962 129.355 C 132.416 128.286 130.832 127.034 129.95 125.59 C 129.061 124.133 128.825 122.402 128.825 120.447 C 128.825 117.219 129.618 113.262 133.525 110.246 C 137.37 107.278 144.356 105.107 156.621 105.107 C 167.526 105.107 175.147 106.322 180.393 109.382 C 185.666 112.458 188.617 117.484 190.236 124.846 C 190.331 125.419 190.65 125.87 191.123 126.254 C 191.595 126.638 192.093 126.855 192.663 126.837 L 206.443 126.837 C 207.099 126.879 207.683 126.457 208.175 125.958 C 208.656 125.24 208.866 124.623 208.859 123.917 C 207.822 111.298 203.211 102.238 194.628 96.21 C 186.026 90.169 173.526 87.291 156.621 87.291 C 141.579 87.291 129.675 90.43 121.465 96.242 C 113.276 102.04 108.889 110.361 108.889 120.977 C 108.889 132.375 113.25 139.489 121.266 144.266 C 129.31 149.06 140.926 151.357 155.346 152.811 C 172.734 154.539 182.168 156.678 187.225 159.256 C 189.792 160.566 191.321 162.059 192.148 163.621 C 192.983 165.199 193.163 166.931 193.163 168.679 C 193.163 174.764 190.631 179.26 185.345 182.073 C 180.105 184.861 172.031 186.14 160.861 186.14 C 146.766 186.14 138.073 184.386 132.695 180.857 C 127.274 177.299 125.135 171.855 124.06 164.779 L 124.054 164.734 L 124.055 164.704 C 124.081 164.021 123.823 163.56 123.364 163.159 C 122.902 162.755 122.349 162.539 121.64 162.554 L 107.859 162.554 C 107.043 162.527 106.441 162.857 105.937 163.391 C 105.435 163.923 105.179 164.535 105.179 165.234 C 105.179 174.185 107.505 183.776 115.586 191.235 C 123.699 198.724 137.496 203.955 160.596 203.955 C 177.364 203.955 190.397 200.682 199.335 194.504 Z" style="fill: none;"/>
    <path d="M 160.596 204.955 C 137.319 204.955 123.158 199.586 114.907 191.97 C 106.623 184.323 104.179 174.303 104.179 165.234 C 104.179 164.343 104.586 163.365 105.21 162.704 C 105.832 162.046 106.82 161.58 107.859 161.554 L 121.64 161.554 C 122.52 161.569 123.425 161.883 124.023 162.406 C 124.624 162.932 125.014 163.766 125.053 164.655 C 126.099 171.623 128.064 176.622 133.243 180.021 C 138.466 183.448 146.865 185.14 160.861 185.14 C 171.953 185.14 179.779 183.901 184.875 181.19 C 189.924 178.504 192.163 174.519 192.163 168.679 C 192.163 166.982 192.011 165.501 191.264 164.089 C 190.509 162.662 189.206 161.389 186.771 160.147 C 181.823 157.624 172.573 155.524 155.246 153.806 C 140.779 152.345 128.942 150.005 120.754 145.125 C 112.539 140.229 107.889 132.636 107.889 120.977 C 107.889 110.128 112.513 101.355 120.887 95.426 C 129.24 89.512 141.452 86.291 156.621 86.291 C 173.638 86.291 186.446 89.243 195.202 95.392 C 203.978 101.555 208.772 111.08 209.858 123.892 C 209.845 124.766 209.538 125.7 208.979 126.555 L 208.952 126.596 L 208.917 126.631 C 208.349 127.192 207.377 127.795 206.443 127.837 L 192.662 127.837 C 191.907 127.82 191.08 127.507 190.492 127.03 C 189.905 126.553 189.428 125.811 189.259 125.059 C 187.698 117.845 184.951 113.199 179.889 110.246 C 174.799 107.277 167.447 106.107 156.621 106.107 C 144.505 106.107 137.843 108.176 134.136 111.038 C 130.49 113.852 129.825 117.315 129.825 120.447 C 129.825 122.335 130.019 123.784 130.804 125.069 C 131.595 126.365 132.926 127.416 135.349 128.433 C 140.268 130.5 149.278 132.144 165.696 134.262 C 182.014 136.386 194.113 138.992 202.102 143.939 C 210.126 148.908 214.069 156.377 214.098 167.89 C 213.937 179.664 209.009 189.033 199.903 195.326 C 190.821 201.604 177.485 204.955 160.596 204.955 Z M 199.335 194.504 C 208.25 188.342 212.994 179.426 213.098 167.881 C 213.127 156.605 209.385 149.626 201.575 144.789 C 193.729 139.931 181.845 137.37 165.567 135.254 C 149.124 133.132 139.98 131.463 134.962 129.355 C 132.416 128.286 130.832 127.034 129.95 125.59 C 129.061 124.133 128.825 122.402 128.825 120.447 C 128.825 117.219 129.618 113.262 133.525 110.246 C 137.37 107.278 144.356 105.107 156.621 105.107 C 167.526 105.107 175.147 106.322 180.393 109.382 C 185.666 112.458 188.617 117.484 190.236 124.846 C 190.331 125.419 190.65 125.87 191.123 126.254 C 191.595 126.638 192.093 126.855 192.663 126.837 L 206.443 126.837 C 207.099 126.879 207.683 126.457 208.175 125.958 C 208.656 125.24 208.866 124.623 208.859 123.917 C 207.822 111.298 203.211 102.238 194.628 96.21 C 186.026 90.169 173.526 87.291 156.621 87.291 C 141.579 87.291 129.675 90.43 121.465 96.242 C 113.276 102.04 108.889 110.361 108.889 120.977 C 108.889 132.375 113.25 139.489 121.266 144.266 C 129.31 149.06 140.926 151.357 155.346 152.811 C 172.734 154.539 182.168 156.678 187.225 159.256 C 189.792 160.566 191.321 162.059 192.148 163.621 C 192.983 165.199 193.163 166.931 193.163 168.679 C 193.163 174.764 190.631 179.26 185.345 182.073 C 180.105 184.861 172.031 186.14 160.861 186.14 C 146.766 186.14 138.073 184.386 132.695 180.857 C 127.274 177.299 125.135 171.855 124.06 164.779 L 124.054 164.734 L 124.055 164.704 C 124.081 164.021 123.823 163.56 123.364 163.159 C 122.902 162.755 122.349 162.539 121.64 162.554 L 107.859 162.554 C 107.043 162.527 106.441 162.857 105.937 163.391 C 105.435 163.923 105.179 164.535 105.179 165.234 C 105.179 174.185 107.505 183.776 115.586 191.235 C 123.699 198.724 137.496 203.955 160.596 203.955 C 177.364 203.955 190.397 200.682 199.335 194.504 Z" style="fill: none;"/>
  </g>
  <path d="M 91.232 106.104 L 91.209 96.897 C 91.209 96.897 89.926 88.009 110.466 88.009 C 123.642 88.009 128.106 92.047 129.588 95.165 C 130.122 95.719 130.47 96.472 130.47 97.34 L 130.47 217.92 C 130.47 238.856 119.074 251.046 99.199 251.046 C 93.103 251.046 88.333 251.046 74.818 244.421 L 46.992 228.521 C 40.101 224.545 35.861 217.125 35.861 209.175 L 35.861 87.005 C 35.861 79.055 40.101 71.634 46.992 67.659 L 152.731 6.442 C 159.356 2.732 168.366 2.732 174.992 6.442 L 280.731 67.659 C 287.621 71.634 291.861 79.055 291.861 87.005 L 291.861 209.175 C 291.861 217.125 287.621 224.545 280.731 228.521 L 174.992 289.738 C 171.546 291.328 167.571 292.123 163.861 292.123 C 159.886 292.123 156.176 291.063 152.731 289.208 L 117.484 268.272 C 112.184 265.357 114.834 264.297 116.424 263.767 C 123.58 261.382 124.905 260.852 132.325 256.612 C 133.12 256.082 134.18 256.347 134.975 256.877 L 162.006 273.042 C 163.066 273.572 164.391 273.572 165.186 273.042 L 270.925 211.825 C 271.985 211.295 272.515 210.235 272.515 208.91 L 272.515 86.74 C 272.515 85.415 271.985 84.355 270.925 83.825 L 165.186 22.873 C 164.126 22.343 162.801 22.343 162.006 22.873 L 56.267 83.825 C 55.207 84.355 54.677 85.68 54.677 86.74 L 54.677 208.91 C 54.677 209.97 55.207 211.295 56.267 211.825 L 85.153 228.521 C 100.789 236.471 110.594 227.196 110.594 217.92 L 110.594 106.104 Z M 96.132 97.719 C 96.132 99.665 97.708 101.238 99.658 101.238 C 101.609 101.238 103.185 99.665 103.185 97.719 C 103.185 95.773 101.609 94.201 99.658 94.201 C 97.708 94.201 96.132 95.773 96.132 97.719 Z" style="fill: rgb(54, 105, 148);" transform="matrix(0, -1, 1, 0, 15.96975, 311.75225)"/>
  <path d="M 227.011 92.143 C 228.962 92.143 230.538 90.571 230.538 88.625 C 230.538 86.679 228.962 85.106 227.011 85.106 C 225.061 85.106 223.485 86.679 223.485 88.625 C 223.485 90.571 225.061 92.143 227.011 92.143 Z M 216.203 98.335 C 199.977 98.335 196.965 92.213 196.461 89.224 C 196.286 88.944 196.159 88.638 196.095 88.316 C 192.914 73.74 184.699 68.97 162.968 68.97 C 138.587 68.97 135.672 77.45 135.672 83.81 C 135.672 91.496 139.117 93.881 171.979 98.121 C 204.575 102.361 219.946 108.456 219.946 131.247 C 219.681 154.568 200.6 167.819 166.943 167.819 C 120.567 167.819 111.026 146.618 111.026 128.597 C 111.026 127.007 112.351 125.417 114.206 125.417 L 127.987 125.417 C 129.577 125.417 130.902 126.477 130.902 128.067 C 133.022 142.113 139.117 149.003 167.208 149.003 C 189.469 149.003 199.01 143.968 199.01 132.042 C 199.01 125.152 196.36 120.117 161.643 116.672 C 132.757 113.757 114.736 107.396 114.736 84.341 C 114.736 62.875 132.757 50.154 162.968 50.154 C 193.642 50.154 210.23 59.689 214.693 80.325 L 215.001 80.588 L 235.438 80.24 L 235.461 89.447 C 235.461 89.447 236.744 98.335 216.203 98.335 Z" style="paint-order: fill; fill: rgb(255, 195, 49);"/>
  <path d="M 175.139 -62.863 L 175.139 -80.543 C 175.152 -83.301 175.871 -85.445 176.934 -86.99 C 178.005 -88.549 179.48 -89.611 180.886 -90.277 C 183.716 -91.619 186.417 -91.577 186.563 -91.576 L 206.002 -91.576 C 208.838 -91.563 210.856 -92.244 212.406 -93.28 C 213.939 -94.305 214.904 -95.625 215.566 -97.014 C 216.882 -99.772 216.79 -102.522 216.79 -102.522 L 216.79 -112.618 L 217.29 -112.618 L 224.105 -112.617 C 224.105 -112.617 227.194 -112.795 230.194 -110.283 C 233.128 -107.826 236.109 -102.636 236.109 -92.172 C 236.109 -81.691 232.679 -76.671 229.316 -74.407 C 225.896 -72.104 222.808 -72.449 222.442 -72.481 L 195.579 -72.481 L 195.579 -70.716 L 215.179 -70.716 L 215.203 -61.031 L 215.201 -61.045 C 215.229 -60.733 215.352 -58.409 213.128 -56.209 C 210.821 -53.928 205.82 -51.621 195.445 -51.621 C 184.593 -51.621 179.438 -54.407 177.111 -57.155 C 174.72 -59.978 175.097 -62.469 175.139 -62.863 Z M 176.139 -62.795 L 176.133 -62.759 C 176.133 -62.759 175.728 -60.336 177.874 -57.802 C 180.083 -55.192 184.831 -52.621 195.445 -52.621 C 205.611 -52.621 210.239 -54.758 212.425 -56.921 C 214.529 -59.001 214.208 -60.938 214.208 -60.938 L 214.203 -60.963 L 214.181 -69.716 L 194.579 -69.716 L 194.579 -73.481 L 222.494 -73.481 L 222.521 -73.478 C 222.521 -73.478 225.606 -73.114 228.758 -75.237 C 231.967 -77.398 235.109 -81.974 235.109 -92.172 C 235.109 -102.387 232.354 -107.17 229.552 -109.516 C 226.816 -111.807 224.169 -111.619 224.169 -111.619 L 217.79 -111.618 L 217.79 -102.528 C 217.794 -102.335 217.883 -99.549 216.469 -96.584 C 215.766 -95.111 214.637 -93.569 212.961 -92.449 C 211.301 -91.339 208.995 -90.589 206.002 -90.576 L 186.561 -90.576 C 186.561 -90.576 183.945 -90.621 181.314 -89.374 C 179.99 -88.746 178.734 -87.843 177.758 -86.423 C 176.772 -84.989 176.126 -83.139 176.139 -80.543 Z M 206.253 -57.813 C 205.176 -57.813 204.107 -58.289 203.406 -58.988 C 202.705 -59.688 202.227 -60.756 202.227 -61.831 C 202.227 -62.906 202.705 -63.975 203.406 -64.674 C 204.106 -65.374 205.176 -65.85 206.253 -65.85 C 207.33 -65.85 208.4 -65.374 209.101 -64.674 C 209.802 -63.975 210.28 -62.906 210.28 -61.831 C 210.28 -60.756 209.802 -59.688 209.101 -58.988 C 208.4 -58.289 207.33 -57.813 206.253 -57.813 Z M 208.395 -59.696 C 208.97 -60.269 209.28 -60.96 209.28 -61.831 C 209.28 -62.702 208.97 -63.393 208.395 -63.966 C 207.82 -64.54 207.127 -64.85 206.253 -64.85 C 205.38 -64.85 204.687 -64.54 204.112 -63.966 C 203.537 -63.393 203.227 -62.702 203.227 -61.831 C 203.227 -60.96 203.537 -60.269 204.112 -59.696 C 204.686 -59.123 205.38 -58.813 206.253 -58.813 C 207.127 -58.813 207.82 -59.123 208.395 -59.696 Z" style="fill: none;" transform="matrix(0, -1, 1, 0, 287.721251, 123.480516)"/>
  <path d="M 175.139 -62.863 L 175.139 -80.543 C 175.152 -83.301 175.871 -85.445 176.934 -86.99 C 178.005 -88.549 179.48 -89.611 180.886 -90.277 C 183.716 -91.619 186.417 -91.577 186.563 -91.576 L 206.002 -91.576 C 208.838 -91.563 210.856 -92.244 212.406 -93.28 C 213.939 -94.305 214.904 -95.625 215.566 -97.014 C 216.882 -99.772 216.79 -102.522 216.79 -102.522 L 216.79 -112.618 L 217.29 -112.618 L 224.105 -112.617 C 224.105 -112.617 227.194 -112.795 230.194 -110.283 C 233.128 -107.826 236.109 -102.636 236.109 -92.172 C 236.109 -81.691 232.679 -76.671 229.316 -74.407 C 225.896 -72.104 222.808 -72.449 222.442 -72.481 L 195.579 -72.481 L 195.579 -70.716 L 215.179 -70.716 L 215.203 -61.031 L 215.201 -61.045 C 215.229 -60.733 215.352 -58.409 213.128 -56.209 C 210.821 -53.928 205.82 -51.621 195.445 -51.621 C 184.593 -51.621 179.438 -54.407 177.111 -57.155 C 174.72 -59.978 175.097 -62.469 175.139 -62.863 Z M 176.139 -62.795 L 176.133 -62.759 C 176.133 -62.759 175.728 -60.336 177.874 -57.802 C 180.083 -55.192 184.831 -52.621 195.445 -52.621 C 205.611 -52.621 210.239 -54.758 212.425 -56.921 C 214.529 -59.001 214.208 -60.938 214.208 -60.938 L 214.203 -60.963 L 214.181 -69.716 L 194.579 -69.716 L 194.579 -73.481 L 222.494 -73.481 L 222.521 -73.478 C 222.521 -73.478 225.606 -73.114 228.758 -75.237 C 231.967 -77.398 235.109 -81.974 235.109 -92.172 C 235.109 -102.387 232.354 -107.17 229.552 -109.516 C 226.816 -111.807 224.169 -111.619 224.169 -111.619 L 217.79 -111.618 L 217.79 -102.528 C 217.794 -102.335 217.883 -99.549 216.469 -96.584 C 215.766 -95.111 214.637 -93.569 212.961 -92.449 C 211.301 -91.339 208.995 -90.589 206.002 -90.576 L 186.561 -90.576 C 186.561 -90.576 183.945 -90.621 181.314 -89.374 C 179.99 -88.746 178.734 -87.843 177.758 -86.423 C 176.772 -84.989 176.126 -83.139 176.139 -80.543 Z M 206.253 -57.813 C 205.176 -57.813 204.107 -58.289 203.406 -58.988 C 202.705 -59.688 202.227 -60.756 202.227 -61.831 C 202.227 -62.906 202.705 -63.975 203.406 -64.674 C 204.106 -65.374 205.176 -65.85 206.253 -65.85 C 207.33 -65.85 208.4 -65.374 209.101 -64.674 C 209.802 -63.975 210.28 -62.906 210.28 -61.831 C 210.28 -60.756 209.802 -59.688 209.101 -58.988 C 208.4 -58.289 207.33 -57.813 206.253 -57.813 Z M 208.395 -59.696 C 208.97 -60.269 209.28 -60.96 209.28 -61.831 C 209.28 -62.702 208.97 -63.393 208.395 -63.966 C 207.82 -64.54 207.127 -64.85 206.253 -64.85 C 205.38 -64.85 204.687 -64.54 204.112 -63.966 C 203.537 -63.393 203.227 -62.702 203.227 -61.831 C 203.227 -60.96 203.537 -60.269 204.112 -59.696 C 204.686 -59.123 205.38 -58.813 206.253 -58.813 C 207.127 -58.813 207.82 -59.123 208.395 -59.696 Z" style="fill: none;" transform="matrix(0, -1, 1, 0, 287.721251, 123.480516)"/>
</svg>