<?xml version="1.0" encoding="utf-8"?>
<svg viewBox="0 0 692 318" xmlns="http://www.w3.org/2000/svg">
  <g transform="matrix(1, 0, 0, 1, 802.769287, 135.39859)">
    <path d="M 160.596 204.955 C 137.319 204.955 123.158 199.586 114.907 191.97 C 106.623 184.323 104.179 174.303 104.179 165.234 C 104.179 164.343 104.586 163.365 105.21 162.704 C 105.832 162.046 106.82 161.58 107.859 161.554 L 121.64 161.554 C 122.52 161.569 123.425 161.883 124.023 162.406 C 124.624 162.932 125.014 163.766 125.053 164.655 C 126.099 171.623 128.064 176.622 133.243 180.021 C 138.466 183.448 146.865 185.14 160.861 185.14 C 171.953 185.14 179.779 183.901 184.875 181.19 C 189.924 178.504 192.163 174.519 192.163 168.679 C 192.163 166.982 192.011 165.501 191.264 164.089 C 190.509 162.662 189.206 161.389 186.771 160.147 C 181.823 157.624 172.573 155.524 155.246 153.806 C 140.779 152.345 128.942 150.005 120.754 145.125 C 112.539 140.229 107.889 132.636 107.889 120.977 C 107.889 110.128 112.513 101.355 120.887 95.426 C 129.24 89.512 141.452 86.291 156.621 86.291 C 173.638 86.291 186.446 89.243 195.202 95.392 C 203.978 101.555 208.772 111.08 209.858 123.892 C 209.845 124.766 209.538 125.7 208.979 126.555 L 208.952 126.596 L 208.917 126.631 C 208.349 127.192 207.377 127.795 206.443 127.837 L 192.662 127.837 C 191.907 127.82 191.08 127.507 190.492 127.03 C 189.905 126.553 189.428 125.811 189.259 125.059 C 187.698 117.845 184.951 113.199 179.889 110.246 C 174.799 107.277 167.447 106.107 156.621 106.107 C 144.505 106.107 137.843 108.176 134.136 111.038 C 130.49 113.852 129.825 117.315 129.825 120.447 C 129.825 122.335 130.019 123.784 130.804 125.069 C 131.595 126.365 132.926 127.416 135.349 128.433 C 140.268 130.5 149.278 132.144 165.696 134.262 C 182.014 136.386 194.113 138.992 202.102 143.939 C 210.126 148.908 214.069 156.377 214.098 167.89 C 213.937 179.664 209.009 189.033 199.903 195.326 C 190.821 201.604 177.485 204.955 160.596 204.955 Z M 199.335 194.504 C 208.25 188.342 212.994 179.426 213.098 167.881 C 213.127 156.605 209.385 149.626 201.575 144.789 C 193.729 139.931 181.845 137.37 165.567 135.254 C 149.124 133.132 139.98 131.463 134.962 129.355 C 132.416 128.286 130.832 127.034 129.95 125.59 C 129.061 124.133 128.825 122.402 128.825 120.447 C 128.825 117.219 129.618 113.262 133.525 110.246 C 137.37 107.278 144.356 105.107 156.621 105.107 C 167.526 105.107 175.147 106.322 180.393 109.382 C 185.666 112.458 188.617 117.484 190.236 124.846 C 190.331 125.419 190.65 125.87 191.123 126.254 C 191.595 126.638 192.093 126.855 192.663 126.837 L 206.443 126.837 C 207.099 126.879 207.683 126.457 208.175 125.958 C 208.656 125.24 208.866 124.623 208.859 123.917 C 207.822 111.298 203.211 102.238 194.628 96.21 C 186.026 90.169 173.526 87.291 156.621 87.291 C 141.579 87.291 129.675 90.43 121.465 96.242 C 113.276 102.04 108.889 110.361 108.889 120.977 C 108.889 132.375 113.25 139.489 121.266 144.266 C 129.31 149.06 140.926 151.357 155.346 152.811 C 172.734 154.539 182.168 156.678 187.225 159.256 C 189.792 160.566 191.321 162.059 192.148 163.621 C 192.983 165.199 193.163 166.931 193.163 168.679 C 193.163 174.764 190.631 179.26 185.345 182.073 C 180.105 184.861 172.031 186.14 160.861 186.14 C 146.766 186.14 138.073 184.386 132.695 180.857 C 127.274 177.299 125.135 171.855 124.06 164.779 L 124.054 164.734 L 124.055 164.704 C 124.081 164.021 123.823 163.56 123.364 163.159 C 122.902 162.755 122.349 162.539 121.64 162.554 L 107.859 162.554 C 107.043 162.527 106.441 162.857 105.937 163.391 C 105.435 163.923 105.179 164.535 105.179 165.234 C 105.179 174.185 107.505 183.776 115.586 191.235 C 123.699 198.724 137.496 203.955 160.596 203.955 C 177.364 203.955 190.397 200.682 199.335 194.504 Z" style="fill: none;"/>
    <path d="M 160.596 204.955 C 137.319 204.955 123.158 199.586 114.907 191.97 C 106.623 184.323 104.179 174.303 104.179 165.234 C 104.179 164.343 104.586 163.365 105.21 162.704 C 105.832 162.046 106.82 161.58 107.859 161.554 L 121.64 161.554 C 122.52 161.569 123.425 161.883 124.023 162.406 C 124.624 162.932 125.014 163.766 125.053 164.655 C 126.099 171.623 128.064 176.622 133.243 180.021 C 138.466 183.448 146.865 185.14 160.861 185.14 C 171.953 185.14 179.779 183.901 184.875 181.19 C 189.924 178.504 192.163 174.519 192.163 168.679 C 192.163 166.982 192.011 165.501 191.264 164.089 C 190.509 162.662 189.206 161.389 186.771 160.147 C 181.823 157.624 172.573 155.524 155.246 153.806 C 140.779 152.345 128.942 150.005 120.754 145.125 C 112.539 140.229 107.889 132.636 107.889 120.977 C 107.889 110.128 112.513 101.355 120.887 95.426 C 129.24 89.512 141.452 86.291 156.621 86.291 C 173.638 86.291 186.446 89.243 195.202 95.392 C 203.978 101.555 208.772 111.08 209.858 123.892 C 209.845 124.766 209.538 125.7 208.979 126.555 L 208.952 126.596 L 208.917 126.631 C 208.349 127.192 207.377 127.795 206.443 127.837 L 192.662 127.837 C 191.907 127.82 191.08 127.507 190.492 127.03 C 189.905 126.553 189.428 125.811 189.259 125.059 C 187.698 117.845 184.951 113.199 179.889 110.246 C 174.799 107.277 167.447 106.107 156.621 106.107 C 144.505 106.107 137.843 108.176 134.136 111.038 C 130.49 113.852 129.825 117.315 129.825 120.447 C 129.825 122.335 130.019 123.784 130.804 125.069 C 131.595 126.365 132.926 127.416 135.349 128.433 C 140.268 130.5 149.278 132.144 165.696 134.262 C 182.014 136.386 194.113 138.992 202.102 143.939 C 210.126 148.908 214.069 156.377 214.098 167.89 C 213.937 179.664 209.009 189.033 199.903 195.326 C 190.821 201.604 177.485 204.955 160.596 204.955 Z M 199.335 194.504 C 208.25 188.342 212.994 179.426 213.098 167.881 C 213.127 156.605 209.385 149.626 201.575 144.789 C 193.729 139.931 181.845 137.37 165.567 135.254 C 149.124 133.132 139.98 131.463 134.962 129.355 C 132.416 128.286 130.832 127.034 129.95 125.59 C 129.061 124.133 128.825 122.402 128.825 120.447 C 128.825 117.219 129.618 113.262 133.525 110.246 C 137.37 107.278 144.356 105.107 156.621 105.107 C 167.526 105.107 175.147 106.322 180.393 109.382 C 185.666 112.458 188.617 117.484 190.236 124.846 C 190.331 125.419 190.65 125.87 191.123 126.254 C 191.595 126.638 192.093 126.855 192.663 126.837 L 206.443 126.837 C 207.099 126.879 207.683 126.457 208.175 125.958 C 208.656 125.24 208.866 124.623 208.859 123.917 C 207.822 111.298 203.211 102.238 194.628 96.21 C 186.026 90.169 173.526 87.291 156.621 87.291 C 141.579 87.291 129.675 90.43 121.465 96.242 C 113.276 102.04 108.889 110.361 108.889 120.977 C 108.889 132.375 113.25 139.489 121.266 144.266 C 129.31 149.06 140.926 151.357 155.346 152.811 C 172.734 154.539 182.168 156.678 187.225 159.256 C 189.792 160.566 191.321 162.059 192.148 163.621 C 192.983 165.199 193.163 166.931 193.163 168.679 C 193.163 174.764 190.631 179.26 185.345 182.073 C 180.105 184.861 172.031 186.14 160.861 186.14 C 146.766 186.14 138.073 184.386 132.695 180.857 C 127.274 177.299 125.135 171.855 124.06 164.779 L 124.054 164.734 L 124.055 164.704 C 124.081 164.021 123.823 163.56 123.364 163.159 C 122.902 162.755 122.349 162.539 121.64 162.554 L 107.859 162.554 C 107.043 162.527 106.441 162.857 105.937 163.391 C 105.435 163.923 105.179 164.535 105.179 165.234 C 105.179 174.185 107.505 183.776 115.586 191.235 C 123.699 198.724 137.496 203.955 160.596 203.955 C 177.364 203.955 190.397 200.682 199.335 194.504 Z" style="fill: none;"/>
  </g>
  <path d="M 993.319 260.628 L 993.319 242.948 C 993.332 240.19 994.051 238.046 995.114 236.501 C 996.185 234.942 997.66 233.88 999.066 233.214 C 1001.896 231.872 1004.597 231.914 1004.743 231.915 L 1024.182 231.915 C 1027.018 231.928 1029.036 231.247 1030.586 230.211 C 1032.119 229.186 1033.084 227.866 1033.746 226.477 C 1035.062 223.719 1034.97 220.969 1034.97 220.969 L 1034.97 210.873 L 1035.47 210.873 L 1042.285 210.874 C 1042.285 210.874 1045.374 210.696 1048.374 213.208 C 1051.308 215.665 1054.289 220.855 1054.289 231.319 C 1054.289 241.8 1050.859 246.82 1047.496 249.084 C 1044.076 251.387 1040.988 251.042 1040.622 251.01 L 1013.759 251.01 L 1013.759 252.775 L 1033.359 252.775 L 1033.383 262.46 L 1033.381 262.446 C 1033.409 262.758 1033.532 265.082 1031.308 267.282 C 1029.001 269.563 1024 271.87 1013.625 271.87 C 1002.773 271.87 997.618 269.084 995.291 266.336 C 992.9 263.513 993.277 261.022 993.319 260.628 Z M 994.319 260.696 L 994.313 260.732 C 994.313 260.732 993.908 263.155 996.054 265.689 C 998.263 268.299 1003.011 270.87 1013.625 270.87 C 1023.791 270.87 1028.419 268.733 1030.605 266.57 C 1032.709 264.49 1032.388 262.553 1032.388 262.553 L 1032.383 262.528 L 1032.361 253.775 L 1012.759 253.775 L 1012.759 250.01 L 1040.674 250.01 L 1040.701 250.013 C 1040.701 250.013 1043.786 250.377 1046.938 248.254 C 1050.147 246.093 1053.289 241.517 1053.289 231.319 C 1053.289 221.104 1050.534 216.321 1047.732 213.975 C 1044.996 211.684 1042.349 211.872 1042.349 211.872 L 1035.97 211.873 L 1035.97 220.963 C 1035.974 221.156 1036.063 223.942 1034.649 226.907 C 1033.946 228.38 1032.817 229.922 1031.141 231.042 C 1029.481 232.152 1027.175 232.902 1024.182 232.915 L 1004.741 232.915 C 1004.741 232.915 1002.125 232.87 999.494 234.117 C 998.17 234.745 996.914 235.648 995.938 237.068 C 994.952 238.502 994.306 240.352 994.319 242.948 Z M 1024.433 265.678 C 1023.356 265.678 1022.287 265.202 1021.586 264.503 C 1020.885 263.803 1020.407 262.735 1020.407 261.66 C 1020.407 260.585 1020.885 259.516 1021.586 258.817 C 1022.286 258.117 1023.356 257.641 1024.433 257.641 C 1025.51 257.641 1026.58 258.117 1027.281 258.817 C 1027.982 259.516 1028.46 260.585 1028.46 261.66 C 1028.46 262.735 1027.982 263.803 1027.281 264.503 C 1026.58 265.202 1025.51 265.678 1024.433 265.678 Z M 1026.575 263.795 C 1027.15 263.222 1027.46 262.531 1027.46 261.66 C 1027.46 260.789 1027.15 260.098 1026.575 259.525 C 1026 258.951 1025.307 258.641 1024.433 258.641 C 1023.56 258.641 1022.867 258.951 1022.292 259.525 C 1021.717 260.098 1021.407 260.789 1021.407 261.66 C 1021.407 262.531 1021.717 263.222 1022.292 263.795 C 1022.866 264.368 1023.56 264.678 1024.433 264.678 C 1025.307 264.678 1026 264.368 1026.575 263.795 Z" style="fill: none;"/>
  <path d="M 993.319 260.628 L 993.319 242.948 C 993.332 240.19 994.051 238.046 995.114 236.501 C 996.185 234.942 997.66 233.88 999.066 233.214 C 1001.896 231.872 1004.597 231.914 1004.743 231.915 L 1024.182 231.915 C 1027.018 231.928 1029.036 231.247 1030.586 230.211 C 1032.119 229.186 1033.084 227.866 1033.746 226.477 C 1035.062 223.719 1034.97 220.969 1034.97 220.969 L 1034.97 210.873 L 1035.47 210.873 L 1042.285 210.874 C 1042.285 210.874 1045.374 210.696 1048.374 213.208 C 1051.308 215.665 1054.289 220.855 1054.289 231.319 C 1054.289 241.8 1050.859 246.82 1047.496 249.084 C 1044.076 251.387 1040.988 251.042 1040.622 251.01 L 1013.759 251.01 L 1013.759 252.775 L 1033.359 252.775 L 1033.383 262.46 L 1033.381 262.446 C 1033.409 262.758 1033.532 265.082 1031.308 267.282 C 1029.001 269.563 1024 271.87 1013.625 271.87 C 1002.773 271.87 997.618 269.084 995.291 266.336 C 992.9 263.513 993.277 261.022 993.319 260.628 Z M 994.319 260.696 L 994.313 260.732 C 994.313 260.732 993.908 263.155 996.054 265.689 C 998.263 268.299 1003.011 270.87 1013.625 270.87 C 1023.791 270.87 1028.419 268.733 1030.605 266.57 C 1032.709 264.49 1032.388 262.553 1032.388 262.553 L 1032.383 262.528 L 1032.361 253.775 L 1012.759 253.775 L 1012.759 250.01 L 1040.674 250.01 L 1040.701 250.013 C 1040.701 250.013 1043.786 250.377 1046.938 248.254 C 1050.147 246.093 1053.289 241.517 1053.289 231.319 C 1053.289 221.104 1050.534 216.321 1047.732 213.975 C 1044.996 211.684 1042.349 211.872 1042.349 211.872 L 1035.97 211.873 L 1035.97 220.963 C 1035.974 221.156 1036.063 223.942 1034.649 226.907 C 1033.946 228.38 1032.817 229.922 1031.141 231.042 C 1029.481 232.152 1027.175 232.902 1024.182 232.915 L 1004.741 232.915 C 1004.741 232.915 1002.125 232.87 999.494 234.117 C 998.17 234.745 996.914 235.648 995.938 237.068 C 994.952 238.502 994.306 240.352 994.319 242.948 Z M 1024.433 265.678 C 1023.356 265.678 1022.287 265.202 1021.586 264.503 C 1020.885 263.803 1020.407 262.735 1020.407 261.66 C 1020.407 260.585 1020.885 259.516 1021.586 258.817 C 1022.286 258.117 1023.356 257.641 1024.433 257.641 C 1025.51 257.641 1026.58 258.117 1027.281 258.817 C 1027.982 259.516 1028.46 260.585 1028.46 261.66 C 1028.46 262.735 1027.982 263.803 1027.281 264.503 C 1026.58 265.202 1025.51 265.678 1024.433 265.678 Z M 1026.575 263.795 C 1027.15 263.222 1027.46 262.531 1027.46 261.66 C 1027.46 260.789 1027.15 260.098 1026.575 259.525 C 1026 258.951 1025.307 258.641 1024.433 258.641 C 1023.56 258.641 1022.867 258.951 1022.292 259.525 C 1021.717 260.098 1021.407 260.789 1021.407 261.66 C 1021.407 262.531 1021.717 263.222 1022.292 263.795 C 1022.866 264.368 1023.56 264.678 1024.433 264.678 C 1025.307 264.678 1026 264.368 1026.575 263.795 Z" style="fill: none;"/>
  <g transform="matrix(0, -1, 1, 0, 100.704582, 148.294891)">
    <path d="M 160.596 204.955 C 137.319 204.955 123.158 199.586 114.907 191.97 C 106.623 184.323 104.179 174.303 104.179 165.234 C 104.179 164.343 104.586 163.365 105.21 162.704 C 105.832 162.046 106.82 161.58 107.859 161.554 L 121.64 161.554 C 122.52 161.569 123.425 161.883 124.023 162.406 C 124.624 162.932 125.014 163.766 125.053 164.655 C 126.099 171.623 128.064 176.622 133.243 180.021 C 138.466 183.448 146.865 185.14 160.861 185.14 C 171.953 185.14 179.779 183.901 184.875 181.19 C 189.924 178.504 192.163 174.519 192.163 168.679 C 192.163 166.982 192.011 165.501 191.264 164.089 C 190.509 162.662 189.206 161.389 186.771 160.147 C 181.823 157.624 172.573 155.524 155.246 153.806 C 140.779 152.345 128.942 150.005 120.754 145.125 C 112.539 140.229 107.889 132.636 107.889 120.977 C 107.889 110.128 112.513 101.355 120.887 95.426 C 129.24 89.512 141.452 86.291 156.621 86.291 C 173.638 86.291 186.446 89.243 195.202 95.392 C 203.978 101.555 208.772 111.08 209.858 123.892 C 209.845 124.766 209.538 125.7 208.979 126.555 L 208.952 126.596 L 208.917 126.631 C 208.349 127.192 207.377 127.795 206.443 127.837 L 192.662 127.837 C 191.907 127.82 191.08 127.507 190.492 127.03 C 189.905 126.553 189.428 125.811 189.259 125.059 C 187.698 117.845 184.951 113.199 179.889 110.246 C 174.799 107.277 167.447 106.107 156.621 106.107 C 144.505 106.107 137.843 108.176 134.136 111.038 C 130.49 113.852 129.825 117.315 129.825 120.447 C 129.825 122.335 130.019 123.784 130.804 125.069 C 131.595 126.365 132.926 127.416 135.349 128.433 C 140.268 130.5 149.278 132.144 165.696 134.262 C 182.014 136.386 194.113 138.992 202.102 143.939 C 210.126 148.908 214.069 156.377 214.098 167.89 C 213.937 179.664 209.009 189.033 199.903 195.326 C 190.821 201.604 177.485 204.955 160.596 204.955 Z M 199.335 194.504 C 208.25 188.342 212.994 179.426 213.098 167.881 C 213.127 156.605 209.385 149.626 201.575 144.789 C 193.729 139.931 181.845 137.37 165.567 135.254 C 149.124 133.132 139.98 131.463 134.962 129.355 C 132.416 128.286 130.832 127.034 129.95 125.59 C 129.061 124.133 128.825 122.402 128.825 120.447 C 128.825 117.219 129.618 113.262 133.525 110.246 C 137.37 107.278 144.356 105.107 156.621 105.107 C 167.526 105.107 175.147 106.322 180.393 109.382 C 185.666 112.458 188.617 117.484 190.236 124.846 C 190.331 125.419 190.65 125.87 191.123 126.254 C 191.595 126.638 192.093 126.855 192.663 126.837 L 206.443 126.837 C 207.099 126.879 207.683 126.457 208.175 125.958 C 208.656 125.24 208.866 124.623 208.859 123.917 C 207.822 111.298 203.211 102.238 194.628 96.21 C 186.026 90.169 173.526 87.291 156.621 87.291 C 141.579 87.291 129.675 90.43 121.465 96.242 C 113.276 102.04 108.889 110.361 108.889 120.977 C 108.889 132.375 113.25 139.489 121.266 144.266 C 129.31 149.06 140.926 151.357 155.346 152.811 C 172.734 154.539 182.168 156.678 187.225 159.256 C 189.792 160.566 191.321 162.059 192.148 163.621 C 192.983 165.199 193.163 166.931 193.163 168.679 C 193.163 174.764 190.631 179.26 185.345 182.073 C 180.105 184.861 172.031 186.14 160.861 186.14 C 146.766 186.14 138.073 184.386 132.695 180.857 C 127.274 177.299 125.135 171.855 124.06 164.779 L 124.054 164.734 L 124.055 164.704 C 124.081 164.021 123.823 163.56 123.364 163.159 C 122.902 162.755 122.349 162.539 121.64 162.554 L 107.859 162.554 C 107.043 162.527 106.441 162.857 105.937 163.391 C 105.435 163.923 105.179 164.535 105.179 165.234 C 105.179 174.185 107.505 183.776 115.586 191.235 C 123.699 198.724 137.496 203.955 160.596 203.955 C 177.364 203.955 190.397 200.682 199.335 194.504 Z" style="fill: none;"/>
    <path d="M 160.596 204.955 C 137.319 204.955 123.158 199.586 114.907 191.97 C 106.623 184.323 104.179 174.303 104.179 165.234 C 104.179 164.343 104.586 163.365 105.21 162.704 C 105.832 162.046 106.82 161.58 107.859 161.554 L 121.64 161.554 C 122.52 161.569 123.425 161.883 124.023 162.406 C 124.624 162.932 125.014 163.766 125.053 164.655 C 126.099 171.623 128.064 176.622 133.243 180.021 C 138.466 183.448 146.865 185.14 160.861 185.14 C 171.953 185.14 179.779 183.901 184.875 181.19 C 189.924 178.504 192.163 174.519 192.163 168.679 C 192.163 166.982 192.011 165.501 191.264 164.089 C 190.509 162.662 189.206 161.389 186.771 160.147 C 181.823 157.624 172.573 155.524 155.246 153.806 C 140.779 152.345 128.942 150.005 120.754 145.125 C 112.539 140.229 107.889 132.636 107.889 120.977 C 107.889 110.128 112.513 101.355 120.887 95.426 C 129.24 89.512 141.452 86.291 156.621 86.291 C 173.638 86.291 186.446 89.243 195.202 95.392 C 203.978 101.555 208.772 111.08 209.858 123.892 C 209.845 124.766 209.538 125.7 208.979 126.555 L 208.952 126.596 L 208.917 126.631 C 208.349 127.192 207.377 127.795 206.443 127.837 L 192.662 127.837 C 191.907 127.82 191.08 127.507 190.492 127.03 C 189.905 126.553 189.428 125.811 189.259 125.059 C 187.698 117.845 184.951 113.199 179.889 110.246 C 174.799 107.277 167.447 106.107 156.621 106.107 C 144.505 106.107 137.843 108.176 134.136 111.038 C 130.49 113.852 129.825 117.315 129.825 120.447 C 129.825 122.335 130.019 123.784 130.804 125.069 C 131.595 126.365 132.926 127.416 135.349 128.433 C 140.268 130.5 149.278 132.144 165.696 134.262 C 182.014 136.386 194.113 138.992 202.102 143.939 C 210.126 148.908 214.069 156.377 214.098 167.89 C 213.937 179.664 209.009 189.033 199.903 195.326 C 190.821 201.604 177.485 204.955 160.596 204.955 Z M 199.335 194.504 C 208.25 188.342 212.994 179.426 213.098 167.881 C 213.127 156.605 209.385 149.626 201.575 144.789 C 193.729 139.931 181.845 137.37 165.567 135.254 C 149.124 133.132 139.98 131.463 134.962 129.355 C 132.416 128.286 130.832 127.034 129.95 125.59 C 129.061 124.133 128.825 122.402 128.825 120.447 C 128.825 117.219 129.618 113.262 133.525 110.246 C 137.37 107.278 144.356 105.107 156.621 105.107 C 167.526 105.107 175.147 106.322 180.393 109.382 C 185.666 112.458 188.617 117.484 190.236 124.846 C 190.331 125.419 190.65 125.87 191.123 126.254 C 191.595 126.638 192.093 126.855 192.663 126.837 L 206.443 126.837 C 207.099 126.879 207.683 126.457 208.175 125.958 C 208.656 125.24 208.866 124.623 208.859 123.917 C 207.822 111.298 203.211 102.238 194.628 96.21 C 186.026 90.169 173.526 87.291 156.621 87.291 C 141.579 87.291 129.675 90.43 121.465 96.242 C 113.276 102.04 108.889 110.361 108.889 120.977 C 108.889 132.375 113.25 139.489 121.266 144.266 C 129.31 149.06 140.926 151.357 155.346 152.811 C 172.734 154.539 182.168 156.678 187.225 159.256 C 189.792 160.566 191.321 162.059 192.148 163.621 C 192.983 165.199 193.163 166.931 193.163 168.679 C 193.163 174.764 190.631 179.26 185.345 182.073 C 180.105 184.861 172.031 186.14 160.861 186.14 C 146.766 186.14 138.073 184.386 132.695 180.857 C 127.274 177.299 125.135 171.855 124.06 164.779 L 124.054 164.734 L 124.055 164.704 C 124.081 164.021 123.823 163.56 123.364 163.159 C 122.902 162.755 122.349 162.539 121.64 162.554 L 107.859 162.554 C 107.043 162.527 106.441 162.857 105.937 163.391 C 105.435 163.923 105.179 164.535 105.179 165.234 C 105.179 174.185 107.505 183.776 115.586 191.235 C 123.699 198.724 137.496 203.955 160.596 203.955 C 177.364 203.955 190.397 200.682 199.335 194.504 Z" style="fill: none;"/>
  </g>
  <path d="M 92.308 115.508 L 92.285 106.301 C 92.285 106.301 91.002 97.413 111.542 97.413 C 124.718 97.413 129.182 101.451 130.664 104.569 C 131.198 105.123 131.546 105.876 131.546 106.744 L 131.546 227.324 C 131.546 248.26 120.15 260.45 100.275 260.45 C 94.179 260.45 89.409 260.45 75.894 253.825 L 48.068 237.925 C 41.177 233.949 36.937 226.529 36.937 218.579 L 36.937 96.409 C 36.937 88.459 41.177 81.038 48.068 77.063 L 153.807 15.846 C 160.432 12.136 169.442 12.136 176.068 15.846 L 281.807 77.063 C 288.697 81.038 292.937 88.459 292.937 96.409 L 292.937 218.579 C 292.937 226.529 288.697 233.949 281.807 237.925 L 176.068 299.142 C 172.622 300.732 168.647 301.527 164.937 301.527 C 160.962 301.527 157.252 300.467 153.807 298.612 L 118.56 277.676 C 113.26 274.761 115.91 273.701 117.5 273.171 C 124.656 270.786 125.981 270.256 133.401 266.016 C 134.196 265.486 135.256 265.751 136.051 266.281 L 163.082 282.446 C 164.142 282.976 165.467 282.976 166.262 282.446 L 272.001 221.229 C 273.061 220.699 273.591 219.639 273.591 218.314 L 273.591 96.144 C 273.591 94.819 273.061 93.759 272.001 93.229 L 166.262 32.277 C 165.202 31.747 163.877 31.747 163.082 32.277 L 57.343 93.229 C 56.283 93.759 55.753 95.084 55.753 96.144 L 55.753 218.314 C 55.753 219.374 56.283 220.699 57.343 221.229 L 86.229 237.925 C 101.865 245.875 111.67 236.6 111.67 227.324 L 111.67 115.508 Z M 97.208 107.123 C 97.208 109.069 98.784 110.642 100.734 110.642 C 102.685 110.642 104.261 109.069 104.261 107.123 C 104.261 105.177 102.685 103.605 100.734 103.605 C 98.784 103.605 97.208 105.177 97.208 107.123 Z" style="fill: rgb(54, 105, 148);" transform="matrix(0, -1, 1, 0, 7.64175, 322.23225)"/>
  <path d="M 228.087 101.547 C 230.038 101.547 231.614 99.975 231.614 98.029 C 231.614 96.083 230.038 94.51 228.087 94.51 C 226.137 94.51 224.561 96.083 224.561 98.029 C 224.561 99.975 226.137 101.547 228.087 101.547 Z M 217.279 107.739 C 201.053 107.739 198.041 101.617 197.537 98.628 C 197.362 98.348 197.235 98.042 197.171 97.72 C 193.99 83.144 185.775 78.374 164.044 78.374 C 139.663 78.374 136.748 86.854 136.748 93.214 C 136.748 100.9 140.193 103.285 173.055 107.525 C 205.651 111.765 221.022 117.86 221.022 140.651 C 220.757 163.972 201.676 177.223 168.019 177.223 C 121.643 177.223 112.102 156.022 112.102 138.001 C 112.102 136.411 113.427 134.821 115.282 134.821 L 129.063 134.821 C 130.653 134.821 131.978 135.881 131.978 137.471 C 134.098 151.517 140.193 158.407 168.284 158.407 C 190.545 158.407 200.086 153.372 200.086 141.446 C 200.086 134.556 197.436 129.521 162.719 126.076 C 133.833 123.161 115.812 116.8 115.812 93.745 C 115.812 72.279 133.833 59.558 164.044 59.558 C 194.718 59.558 211.306 69.093 215.769 89.729 L 216.077 89.992 L 236.514 89.644 L 236.537 98.851 C 236.537 98.851 237.82 107.739 217.279 107.739 Z" style="paint-order: fill; fill: rgb(255, 195, 49);"/>
  <path d="M 176.215 -53.459 L 176.215 -71.139 C 176.228 -73.897 176.947 -76.041 178.01 -77.586 C 179.081 -79.145 180.556 -80.207 181.962 -80.873 C 184.792 -82.215 187.493 -82.173 187.639 -82.172 L 207.078 -82.172 C 209.914 -82.159 211.932 -82.84 213.482 -83.876 C 215.015 -84.901 215.98 -86.221 216.642 -87.61 C 217.958 -90.368 217.866 -93.118 217.866 -93.118 L 217.866 -103.214 L 218.366 -103.214 L 225.181 -103.213 C 225.181 -103.213 228.27 -103.391 231.27 -100.879 C 234.204 -98.422 237.185 -93.232 237.185 -82.768 C 237.185 -72.287 233.755 -67.267 230.392 -65.003 C 226.972 -62.7 223.884 -63.045 223.518 -63.077 L 196.655 -63.077 L 196.655 -61.312 L 216.255 -61.312 L 216.279 -51.627 L 216.277 -51.641 C 216.305 -51.329 216.428 -49.005 214.204 -46.805 C 211.897 -44.524 206.896 -42.217 196.521 -42.217 C 185.669 -42.217 180.514 -45.003 178.187 -47.751 C 175.796 -50.574 176.173 -53.065 176.215 -53.459 Z M 177.215 -53.391 L 177.209 -53.355 C 177.209 -53.355 176.804 -50.932 178.95 -48.398 C 181.159 -45.788 185.907 -43.217 196.521 -43.217 C 206.687 -43.217 211.315 -45.354 213.501 -47.517 C 215.605 -49.597 215.284 -51.534 215.284 -51.534 L 215.279 -51.559 L 215.257 -60.312 L 195.655 -60.312 L 195.655 -64.077 L 223.57 -64.077 L 223.597 -64.074 C 223.597 -64.074 226.682 -63.71 229.834 -65.833 C 233.043 -67.994 236.185 -72.57 236.185 -82.768 C 236.185 -92.983 233.43 -97.766 230.628 -100.112 C 227.892 -102.403 225.245 -102.215 225.245 -102.215 L 218.866 -102.214 L 218.866 -93.124 C 218.87 -92.931 218.959 -90.145 217.545 -87.18 C 216.842 -85.707 215.713 -84.165 214.037 -83.045 C 212.377 -81.935 210.071 -81.185 207.078 -81.172 L 187.637 -81.172 C 187.637 -81.172 185.021 -81.217 182.39 -79.97 C 181.066 -79.342 179.81 -78.439 178.834 -77.019 C 177.848 -75.585 177.202 -73.735 177.215 -71.139 Z M 207.329 -48.409 C 206.252 -48.409 205.183 -48.885 204.482 -49.584 C 203.781 -50.284 203.303 -51.352 203.303 -52.427 C 203.303 -53.502 203.781 -54.571 204.482 -55.27 C 205.182 -55.97 206.252 -56.446 207.329 -56.446 C 208.406 -56.446 209.476 -55.97 210.177 -55.27 C 210.878 -54.571 211.356 -53.502 211.356 -52.427 C 211.356 -51.352 210.878 -50.284 210.177 -49.584 C 209.476 -48.885 208.406 -48.409 207.329 -48.409 Z M 209.471 -50.292 C 210.046 -50.865 210.356 -51.556 210.356 -52.427 C 210.356 -53.298 210.046 -53.989 209.471 -54.562 C 208.896 -55.136 208.203 -55.446 207.329 -55.446 C 206.456 -55.446 205.763 -55.136 205.188 -54.562 C 204.613 -53.989 204.303 -53.298 204.303 -52.427 C 204.303 -51.556 204.613 -50.865 205.188 -50.292 C 205.762 -49.719 206.456 -49.409 207.329 -49.409 C 208.203 -49.409 208.896 -49.719 209.471 -50.292 Z" style="fill: none;" transform="matrix(0, -1, 1, 0, 279.393255, 133.96052)"/>
  <path d="M 176.215 -53.459 L 176.215 -71.139 C 176.228 -73.897 176.947 -76.041 178.01 -77.586 C 179.081 -79.145 180.556 -80.207 181.962 -80.873 C 184.792 -82.215 187.493 -82.173 187.639 -82.172 L 207.078 -82.172 C 209.914 -82.159 211.932 -82.84 213.482 -83.876 C 215.015 -84.901 215.98 -86.221 216.642 -87.61 C 217.958 -90.368 217.866 -93.118 217.866 -93.118 L 217.866 -103.214 L 218.366 -103.214 L 225.181 -103.213 C 225.181 -103.213 228.27 -103.391 231.27 -100.879 C 234.204 -98.422 237.185 -93.232 237.185 -82.768 C 237.185 -72.287 233.755 -67.267 230.392 -65.003 C 226.972 -62.7 223.884 -63.045 223.518 -63.077 L 196.655 -63.077 L 196.655 -61.312 L 216.255 -61.312 L 216.279 -51.627 L 216.277 -51.641 C 216.305 -51.329 216.428 -49.005 214.204 -46.805 C 211.897 -44.524 206.896 -42.217 196.521 -42.217 C 185.669 -42.217 180.514 -45.003 178.187 -47.751 C 175.796 -50.574 176.173 -53.065 176.215 -53.459 Z M 177.215 -53.391 L 177.209 -53.355 C 177.209 -53.355 176.804 -50.932 178.95 -48.398 C 181.159 -45.788 185.907 -43.217 196.521 -43.217 C 206.687 -43.217 211.315 -45.354 213.501 -47.517 C 215.605 -49.597 215.284 -51.534 215.284 -51.534 L 215.279 -51.559 L 215.257 -60.312 L 195.655 -60.312 L 195.655 -64.077 L 223.57 -64.077 L 223.597 -64.074 C 223.597 -64.074 226.682 -63.71 229.834 -65.833 C 233.043 -67.994 236.185 -72.57 236.185 -82.768 C 236.185 -92.983 233.43 -97.766 230.628 -100.112 C 227.892 -102.403 225.245 -102.215 225.245 -102.215 L 218.866 -102.214 L 218.866 -93.124 C 218.87 -92.931 218.959 -90.145 217.545 -87.18 C 216.842 -85.707 215.713 -84.165 214.037 -83.045 C 212.377 -81.935 210.071 -81.185 207.078 -81.172 L 187.637 -81.172 C 187.637 -81.172 185.021 -81.217 182.39 -79.97 C 181.066 -79.342 179.81 -78.439 178.834 -77.019 C 177.848 -75.585 177.202 -73.735 177.215 -71.139 Z M 207.329 -48.409 C 206.252 -48.409 205.183 -48.885 204.482 -49.584 C 203.781 -50.284 203.303 -51.352 203.303 -52.427 C 203.303 -53.502 203.781 -54.571 204.482 -55.27 C 205.182 -55.97 206.252 -56.446 207.329 -56.446 C 208.406 -56.446 209.476 -55.97 210.177 -55.27 C 210.878 -54.571 211.356 -53.502 211.356 -52.427 C 211.356 -51.352 210.878 -50.284 210.177 -49.584 C 209.476 -48.885 208.406 -48.409 207.329 -48.409 Z M 209.471 -50.292 C 210.046 -50.865 210.356 -51.556 210.356 -52.427 C 210.356 -53.298 210.046 -53.989 209.471 -54.562 C 208.896 -55.136 208.203 -55.446 207.329 -55.446 C 206.456 -55.446 205.763 -55.136 205.188 -54.562 C 204.613 -53.989 204.303 -53.298 204.303 -52.427 C 204.303 -51.556 204.613 -50.865 205.188 -50.292 C 205.762 -49.719 206.456 -49.409 207.329 -49.409 C 208.203 -49.409 208.896 -49.719 209.471 -50.292 Z" style="fill: none;" transform="matrix(0, -1, 1, 0, 279.393255, 133.96052)"/>
  <path d="M 338.812 201.882 C 341.412 201.882 343.65 201.263 345.562 200.082 C 347.455 198.87 349.155 197.126 350.662 194.832 C 352.158 192.53 353.535 189.681 354.783 186.281 C 356.036 182.882 357.416 178.917 358.916 174.422 L 381.112 102.432 L 402.562 102.432 L 375.108 178.341 C 372.61 184.838 370.262 190.509 368.062 195.362 C 365.862 200.21 363.466 204.236 360.862 207.432 C 358.272 210.638 355.212 213.058 351.71 214.713 C 348.209 216.361 343.877 217.178 338.787 217.181 C 336.794 217.08 334.642 216.855 332.294 216.502 C 329.94 216.155 327.561 215.432 325.16 214.331 L 325.162 214.332 L 329.962 200.832 L 329.961 200.832 C 331.662 201.332 333.214 201.629 334.612 201.733 C 336.012 201.831 337.412 201.882 338.812 201.882 Z" transform="matrix(1, 0, 0, 1, 0, 0)" style="fill: rgb(54, 105, 148); white-space: pre;"/>
  <path d="M 636.112 132.432 L 649.485 132.432 L 649.564 131.521 C 649.733 129.577 649.654 127.934 649.162 125.832 C 648.655 123.736 647.842 121.892 646.686 120.288 C 645.537 118.685 644.096 117.415 642.34 116.467 C 640.585 115.511 638.557 115.032 636.262 115.032 C 634.165 115.032 632.092 115.481 630.037 116.379 C 627.986 117.281 626.109 118.712 624.409 120.665 C 622.708 122.614 621.335 125.109 620.283 128.16 C 619.235 131.21 618.712 134.883 618.712 139.182 C 618.712 147.879 620.654 154.593 624.557 159.346 C 628.464 164.104 633.566 166.482 639.862 166.482 C 643.362 166.482 646.787 166.06 650.141 165.212 C 653.489 164.359 657.362 162.932 661.762 160.932 L 667.012 174.882 L 667.836 174.485 L 667.013 174.882 C 661.612 177.482 656.535 179.309 651.781 180.363 C 647.035 181.409 642.312 181.932 637.612 181.932 C 630.714 181.932 624.789 180.683 619.834 178.183 C 614.885 175.682 610.785 172.459 607.531 168.512 C 604.285 164.559 601.886 160.081 600.332 155.083 C 598.785 150.081 598.012 145.032 598.012 139.932 C 598.012 133.733 599.035 128.183 601.082 123.282 C 603.135 118.382 605.936 114.255 609.482 110.901 C 613.037 107.554 617.21 104.972 622.012 103.182 C 626.81 101.375 631.912 100.482 637.312 100.482 C 642.812 100.482 647.868 101.57 652.462 103.782 C 657.068 105.969 660.776 109.023 663.562 112.932 C 666.376 116.82 668.084 121.507 668.732 126.962 C 669.385 132.41 668.612 138.333 666.412 144.733 L 666.412 144.732 L 624.412 144.732 L 624.411 144.734 C 625.511 141.234 627.081 138.319 629.135 135.97 C 631.183 133.615 633.5 132.433 636.112 132.432 Z" transform="matrix(1, 0, 0, 1, 0, 0)" style="white-space: pre; fill: rgb(255, 195, 49);"/>
  <path d="M 557.962 79.932 C 557.962 76.436 559.135 73.464 561.484 71.01 C 563.844 68.558 566.767 67.332 570.262 67.332 C 573.758 67.332 576.67 68.547 579.026 71.006 C 581.384 73.46 582.562 76.437 582.562 79.932 C 582.562 83.432 581.385 86.358 579.032 88.712 C 576.685 91.059 573.762 92.232 570.262 92.232 C 566.767 92.232 563.841 91.058 561.481 88.711 C 559.134 86.351 557.962 83.427 557.962 79.932 Z" transform="matrix(1, 0, 0, 1, 0, 0)" style="fill: rgb(54, 105, 148); white-space: pre;"/>
  <path d="M 559.762 179.982 L 559.762 102.432 L 580.762 102.432 L 580.762 179.982 L 559.762 179.982 Z" transform="matrix(1, 0, 0, 1, 0, 0)" style="fill: rgb(54, 105, 148); white-space: pre;"/>
  <path d="M 516.712 124.939 C 516.711 122.432 516.137 120.394 515.062 118.783 C 513.892 117.227 512.009 116.382 509.212 116.382 C 508.313 116.382 507.334 116.51 506.282 116.762 C 505.233 117.009 504.077 117.181 502.776 117.281 C 501.569 117.382 500.42 117.159 499.315 116.604 C 498.213 116.055 497.185 115.281 496.232 114.283 C 495.285 113.282 494.412 112.156 493.612 110.902 C 492.812 109.656 492.062 108.332 491.362 106.931 C 496.862 104.631 501.511 102.981 505.312 101.982 C 509.111 100.979 512.762 100.482 516.262 100.482 C 518.86 100.482 521.429 100.98 523.979 101.981 C 526.535 102.982 528.821 104.476 530.812 106.482 C 532.819 108.473 534.433 110.977 535.681 113.979 C 536.935 116.982 537.562 120.532 537.562 124.632 L 537.562 179.982 L 516.712 179.982 L 516.712 124.939 Z" transform="matrix(1, 0, 0, 1, 0, 0)" style="fill: rgb(54, 105, 148); white-space: pre;"/>
  <path d="M 468.862 124.937 C 468.862 122.431 468.393 120.39 467.512 118.782 C 466.524 117.227 464.857 116.382 462.262 116.382 C 461.362 116.382 460.462 116.485 459.562 116.682 C 458.662 116.884 457.613 117.033 456.412 117.132 C 455.221 117.253 454.093 117.007 453.032 116.462 C 451.98 115.906 451.004 115.135 450.112 114.132 C 449.211 113.133 448.361 112.008 447.561 110.761 C 446.762 109.509 446.013 108.182 445.313 106.782 L 445.312 106.782 C 445.312 106.782 445.312 106.782 445.313 106.782 C 445.312 106.782 445.312 106.781 445.312 106.781 L 445.313 106.782 C 450.712 104.582 455.238 102.982 458.891 101.983 C 462.54 100.982 466.113 100.482 469.612 100.482 C 472.21 100.482 474.728 100.98 477.178 101.98 C 479.634 102.982 481.789 104.483 483.642 106.482 C 485.489 108.484 486.99 110.984 488.143 113.984 C 489.291 116.986 489.862 120.531 489.862 124.632 L 489.862 179.982 L 468.862 179.982 L 468.862 124.937 Z" transform="matrix(1, 0, 0, 1, 0, 0)" style="fill: rgb(54, 105, 148); white-space: pre;"/>
  <path d="M 435.863 102.093 L 436.16 102.431 C 438.561 105.13 440.137 107.804 440.891 110.46 C 441.639 113.109 442.012 115.932 442.012 118.932 L 442.012 179.982 L 421.012 179.982 L 421.012 121.332 C 421.012 118.532 420.835 115.554 420.482 112.401 C 420.135 109.254 419.562 105.931 418.762 102.432 L 436.161 102.432 L 435.863 102.093 Z" transform="matrix(1, 0, 0, 1, 0, 0)" style="fill: rgb(54, 105, 148); white-space: pre;"/>
  <path d="M 355.013 137.835 C 356.012 141.135 356.566 144.682 356.662 148.482 C 356.764 152.281 356.512 156.009 355.912 159.662 C 355.312 163.309 354.485 166.757 353.433 170.011 C 352.386 173.258 351.212 175.933 349.911 178.033 L 349.912 178.032 L 322.012 102.432 L 344.512 102.432 L 355.013 137.835 Z" transform="matrix(1, 0, 0, 1, 0, 0)" style="fill: rgb(54, 105, 148); white-space: pre;"/>
  <path d="M 338.812 201.382 C 341.345 201.382 343.449 200.81 345.295 199.659 C 347.143 198.483 348.766 196.815 350.243 194.559 C 351.724 192.284 353.075 189.485 354.314 186.108 C 355.565 182.713 356.942 178.759 358.44 174.269 L 380.743 101.932 L 403.275 101.932 L 403.032 102.602 L 375.575 178.52 C 373.074 185.023 370.721 190.708 368.517 195.569 C 366.304 200.441 363.875 204.521 361.25 207.747 C 358.621 210.992 355.473 213.48 351.923 215.165 C 348.362 216.833 343.898 217.673 338.762 217.68 C 336.755 217.578 334.58 217.351 332.221 216.997 C 329.995 216.666 327.719 215.998 325.452 215.009 L 325.444 215.032 L 324.944 214.782 L 324.537 214.596 L 329.314 201.163 L 326.487 200.332 L 329.609 200.332 L 329.649 200.219 L 330.033 200.332 L 330.67 200.332 L 330.612 200.498 C 332.085 200.903 333.419 201.144 334.648 201.234 C 336.039 201.332 337.421 201.382 338.812 201.382 Z M 334.577 202.232 C 333.151 202.124 331.828 201.87 330.276 201.442 L 325.787 214.065 C 328.011 215.047 330.05 215.669 332.367 216.007 C 334.704 216.359 336.824 216.581 338.8 216.681 C 343.838 216.681 348.056 215.889 351.497 214.261 C 354.951 212.636 357.922 210.285 360.473 207.118 C 363.056 203.952 365.42 199.979 367.607 195.155 C 369.803 190.31 372.145 184.655 374.64 178.166 L 401.849 102.932 L 381.481 102.932 L 359.394 174.569 C 357.893 179.067 356.507 183.051 355.252 186.454 C 353.995 189.877 352.593 192.775 351.081 195.104 C 349.544 197.436 347.769 199.255 345.832 200.503 C 343.855 201.712 341.479 202.382 338.812 202.382 C 337.403 202.382 335.985 202.33 334.577 202.232 Z M 355.492 137.692 C 356.498 141.025 357.063 144.636 357.162 148.469 C 357.263 152.291 357.008 156.067 356.405 159.743 C 355.802 163.408 354.966 166.892 353.909 170.164 C 352.887 173.328 351.732 175.986 350.465 178.086 L 350.492 178.159 L 350.306 178.345 L 349.798 179.167 L 349.713 178.938 L 347.214 181.437 L 349.358 177.976 L 321.295 101.932 L 344.885 101.932 Z M 344.139 102.932 L 322.729 102.932 L 350.016 176.87 C 351.089 174.957 351.919 173.08 352.957 169.858 C 354.004 166.622 354.822 163.21 355.419 159.581 C 356.016 155.952 356.265 152.271 356.162 148.495 C 356.069 144.728 355.526 141.246 354.534 137.98 Z M 436.239 101.763 L 436.549 102.116 C 436.605 102.179 436.66 102.242 436.715 102.305 L 437.266 102.932 L 437.247 102.932 C 439.285 105.398 440.672 107.885 441.372 110.324 C 442.127 113.008 442.51 115.899 442.512 118.932 L 442.512 180.482 L 420.512 180.482 L 420.512 121.332 C 420.512 118.547 420.337 115.596 419.985 112.456 C 419.64 109.324 419.072 106.029 418.275 102.543 L 418.135 101.932 L 436.046 101.932 Z M 435.936 102.932 L 419.387 102.932 C 420.119 106.222 420.63 109.184 420.979 112.346 C 421.333 115.512 421.512 118.517 421.512 121.332 L 421.512 179.482 L 441.512 179.482 L 441.512 118.932 C 441.514 115.965 441.151 113.21 440.41 110.596 C 439.681 107.999 438.223 105.532 435.936 102.932 Z M 468.362 124.937 C 468.368 122.487 467.932 120.574 467.079 119.032 C 466.189 117.566 464.744 116.882 462.262 116.882 C 461.39 116.882 460.545 116.977 459.67 117.17 C 458.751 117.376 457.678 117.529 456.463 117.629 C 455.193 117.746 453.92 117.471 452.798 116.904 C 451.708 116.323 450.664 115.498 449.74 114.466 C 448.825 113.451 447.95 112.293 447.14 111.03 C 446.386 109.849 445.672 108.593 445.005 107.282 C 445.025 107.282 445.307 107.282 445.313 107.282 C 445.313 107.282 445.313 107.282 445.313 107.282 C 445.313 107.282 445.313 107.282 445.313 107.282 C 445.313 107.282 445.313 107.282 445.313 107.282 C 445.313 107.282 445.313 107.282 445.313 107.282 L 445.313 106.782 C 445.139 106.782 444.911 107.062 444.868 107.01 C 444.867 107.008 444.866 107.007 444.866 107.006 L 444.868 107.01 C 444.867 107.008 444.866 107.007 444.865 107.005 C 444.815 106.905 444.812 106.781 444.812 106.781 L 444.784 105.546 L 445.432 106.194 L 445.124 106.319 C 450.534 104.115 455.088 102.505 458.759 101.501 C 462.439 100.493 466.078 99.982 469.612 99.982 C 472.258 99.982 474.871 100.503 477.367 101.517 C 479.871 102.545 482.116 104.109 484.009 106.143 C 485.887 108.186 487.438 110.766 488.61 113.805 C 489.771 116.857 490.359 120.491 490.362 124.632 L 490.362 180.482 L 468.362 180.482 Z M 469.362 179.482 L 489.362 179.482 L 489.362 124.632 C 489.365 120.571 488.811 117.115 487.676 114.163 C 486.542 111.202 485.091 108.782 483.275 106.821 C 481.462 104.857 479.397 103.419 476.989 102.443 C 474.585 101.457 472.161 100.982 469.612 100.982 C 466.148 100.982 462.641 101.471 459.023 102.465 C 455.501 103.428 451.17 104.95 446.005 107.041 C 446.627 108.251 447.283 109.396 447.982 110.492 C 448.771 111.723 449.596 112.815 450.483 113.797 C 451.343 114.77 452.252 115.489 453.266 116.02 C 454.266 116.543 455.249 116.76 456.361 116.635 C 457.548 116.537 458.572 116.393 459.452 116.194 C 460.378 115.993 461.334 115.882 462.262 115.882 C 464.97 115.882 466.848 116.87 467.934 118.514 C 468.839 120.186 469.356 122.375 469.362 124.937 Z M 516.212 124.939 C 516.22 122.5 515.69 120.608 514.652 119.069 C 513.579 117.591 511.907 116.882 509.212 116.882 C 508.345 116.882 507.423 117.001 506.397 117.249 C 505.327 117.5 504.136 117.677 502.818 117.779 C 501.542 117.877 500.26 117.628 499.091 117.051 C 497.95 116.478 496.852 115.652 495.869 114.627 C 494.906 113.607 494.004 112.444 493.191 111.172 C 492.384 109.914 491.621 108.567 490.915 107.154 L 490.676 106.676 L 491.169 106.47 C 496.682 104.165 501.363 102.504 505.184 101.499 C 509.013 100.49 512.728 99.982 516.262 99.982 C 518.908 99.982 521.568 100.502 524.161 101.515 C 526.763 102.54 529.134 104.09 531.166 106.128 C 533.207 108.161 534.874 110.745 536.142 113.787 C 537.412 116.842 538.058 120.489 538.062 124.632 L 538.062 180.482 L 516.212 180.482 Z M 517.212 179.482 L 537.062 179.482 L 537.062 124.632 C 537.066 120.575 536.458 117.122 535.22 114.172 C 533.992 111.209 532.433 108.786 530.46 106.837 C 528.51 104.864 526.307 103.424 523.797 102.447 C 521.29 101.458 518.812 100.982 516.262 100.982 C 512.796 100.982 509.209 101.468 505.44 102.465 C 501.659 103.458 497.539 104.89 492.051 107.185 C 492.674 108.397 493.24 109.398 494.033 110.632 C 494.82 111.867 495.664 112.957 496.595 113.939 C 497.518 114.91 498.475 115.632 499.538 116.156 C 500.578 116.689 501.596 116.887 502.734 116.783 C 504.018 116.685 505.138 116.519 506.167 116.275 C 507.244 116.019 508.281 115.882 509.212 115.882 C 512.111 115.882 514.194 116.849 515.462 118.483 C 516.569 120.164 517.202 122.364 517.212 124.939 Z M 559.262 101.932 L 581.262 101.932 L 581.262 180.482 L 559.262 180.482 Z M 580.262 179.482 L 580.262 102.932 L 560.262 102.932 L 560.262 179.482 Z M 557.462 79.932 C 557.462 76.344 558.723 73.198 561.124 70.663 C 563.567 68.154 566.67 66.832 570.262 66.832 C 573.854 66.832 576.947 68.143 579.387 70.66 C 581.797 73.195 583.062 76.345 583.062 79.932 C 583.062 83.525 581.794 86.628 579.386 89.066 C 576.955 91.468 573.855 92.732 570.262 92.732 C 566.674 92.732 563.57 91.465 561.126 89.064 C 558.725 86.62 557.462 83.52 557.462 79.932 Z M 561.835 88.357 C 564.111 90.649 566.86 91.732 570.262 91.732 C 573.669 91.732 576.415 90.65 578.678 88.358 C 580.976 86.088 582.062 83.339 582.062 79.932 C 582.062 76.529 580.971 73.725 578.665 71.352 C 576.394 68.951 573.662 67.832 570.262 67.832 C 566.864 67.832 564.121 68.961 561.845 71.356 C 559.548 73.729 558.462 76.528 558.462 79.932 C 558.462 83.334 559.542 86.081 561.835 88.357 Z M 636.112 131.932 L 649.026 131.932 L 649.066 131.478 C 649.234 129.567 649.161 128.004 648.676 125.948 C 648.183 123.895 647.41 122.138 646.28 120.579 C 645.169 119.018 643.81 117.822 642.101 116.906 C 640.408 115.974 638.5 115.532 636.262 115.532 C 634.218 115.532 632.246 115.954 630.238 116.837 C 628.238 117.709 626.449 119.075 624.786 120.994 C 623.115 122.899 621.791 125.311 620.756 128.322 C 619.719 131.326 619.212 134.918 619.212 139.182 C 619.212 147.81 621.087 154.365 624.943 159.029 C 628.763 163.719 633.672 165.982 639.862 165.982 C 643.331 165.982 646.695 165.57 650.018 164.727 C 653.341 163.882 657.172 162.47 661.555 160.477 L 662.042 160.256 L 667.287 174.194 L 667.619 174.035 L 668.053 174.935 L 667.23 175.333 C 661.805 177.942 656.673 179.788 651.889 180.851 C 647.116 181.902 642.34 182.432 637.612 182.432 C 630.662 182.432 624.625 181.151 619.608 178.629 C 614.618 176.102 610.437 172.814 607.145 168.829 C 603.871 164.836 601.427 160.273 599.854 155.231 C 598.299 150.193 597.512 145.07 597.512 139.932 C 597.512 133.688 598.559 128.041 600.621 123.089 C 602.698 118.145 605.558 113.932 609.139 110.537 C 612.734 107.159 616.991 104.525 621.837 102.714 C 626.679 100.895 631.869 99.982 637.312 99.982 C 642.865 99.982 648.028 101.1 652.678 103.331 C 657.335 105.551 661.138 108.684 663.968 112.64 C 666.815 116.589 668.567 121.392 669.228 126.903 C 669.881 132.413 669.096 138.447 666.885 144.896 L 665.912 147.732 L 665.912 145.232 L 624.721 145.232 L 624.858 144.958 L 623.934 144.584 C 625.052 141.04 626.672 138.037 628.758 135.642 C 630.881 133.228 633.387 131.96 636.112 131.932 Z M 629.512 136.298 C 627.619 138.455 626.165 141.07 625.1 144.232 L 666.055 144.232 C 668.154 138.013 668.877 132.312 668.236 127.022 C 667.601 121.623 665.939 117.052 663.157 113.225 C 660.416 109.364 656.802 106.388 652.248 104.234 C 647.709 102.041 642.759 100.982 637.312 100.982 C 631.955 100.982 626.941 101.855 622.188 103.65 C 617.43 105.418 613.34 107.949 609.825 111.265 C 606.314 114.578 603.572 118.619 601.543 123.475 C 599.511 128.325 598.512 133.778 598.512 139.932 C 598.512 144.994 599.271 149.969 600.81 154.935 C 602.345 159.889 604.699 164.282 607.917 168.195 C 611.133 172.104 615.152 175.262 620.06 177.737 C 624.953 180.215 630.766 181.432 637.612 181.432 C 642.284 181.432 646.954 180.916 651.673 179.875 C 656.275 178.856 661.161 177.114 666.383 174.629 L 661.482 161.607 C 657.264 163.5 653.637 164.836 650.264 165.697 C 646.88 166.55 643.393 166.982 639.862 166.982 C 633.46 166.982 628.165 164.489 624.171 159.663 C 620.221 154.821 618.212 147.948 618.212 139.182 C 618.212 134.848 618.751 131.094 619.81 127.998 C 620.879 124.907 622.3 122.329 624.032 120.336 C 625.769 118.349 627.734 116.853 629.836 115.921 C 631.938 115.008 634.112 114.532 636.262 114.532 C 638.614 114.532 640.762 115.048 642.579 116.028 C 644.381 117.008 645.905 118.352 647.092 119.996 C 648.274 121.645 649.127 123.576 649.648 125.714 C 650.146 127.861 650.232 129.587 650.062 131.564 L 649.983 132.475 L 649.944 132.932 L 636.112 132.932 C 633.614 132.906 631.485 134.002 629.512 136.298 Z" style="fill: none;" transform="matrix(1, 0, 0, 1, 0, 0)"/>
</svg>